<mxfile host="app.diagrams.net" modified="2022-09-10T03:24:22.945Z" agent="5.0 (Windows NT 10.0; Win64; x64) AppleWebKit/537.36 (KHTML, like Gecko) Chrome/105.0.0.0 Safari/537.36" etag="DHaF8LV7p4HasDBxCnHU" version="20.3.0" type="github">
  <diagram id="idsj6dxLZvEoAHtVf7Wu" name="第 1 页">
    <mxGraphModel dx="1640" dy="431" grid="1" gridSize="10" guides="1" tooltips="1" connect="1" arrows="1" fold="1" page="1" pageScale="1" pageWidth="827" pageHeight="1169" math="0" shadow="0">
      <root>
        <mxCell id="0" />
        <mxCell id="1" parent="0" />
        <mxCell id="G0NdqX8XDF4M0NVHrU59-21" style="edgeStyle=orthogonalEdgeStyle;rounded=0;orthogonalLoop=1;jettySize=auto;html=1;exitX=1;exitY=0.5;exitDx=0;exitDy=0;entryX=0.45;entryY=0.494;entryDx=0;entryDy=0;entryPerimeter=0;fontSize=17;strokeColor=default;" edge="1" parent="1" source="G0NdqX8XDF4M0NVHrU59-1" target="G0NdqX8XDF4M0NVHrU59-19">
          <mxGeometry relative="1" as="geometry" />
        </mxCell>
        <mxCell id="G0NdqX8XDF4M0NVHrU59-1" value="数据&lt;br&gt;&lt;font style=&quot;font-size: 12px;&quot;&gt;符号表示&lt;/font&gt;" style="rounded=0;whiteSpace=wrap;html=1;fontSize=20;" vertex="1" parent="1">
          <mxGeometry x="40" y="70" width="120" height="60" as="geometry" />
        </mxCell>
        <mxCell id="G0NdqX8XDF4M0NVHrU59-8" value="信息&lt;br&gt;&lt;font style=&quot;font-size: 12px;&quot;&gt;含义&lt;/font&gt;" style="rounded=0;whiteSpace=wrap;html=1;fontSize=20;" vertex="1" parent="1">
          <mxGeometry x="40" y="210" width="120" height="60" as="geometry" />
        </mxCell>
        <mxCell id="G0NdqX8XDF4M0NVHrU59-10" value="知识&lt;br&gt;&lt;font style=&quot;font-size: 12px;&quot;&gt;认识经验的成果&lt;/font&gt;" style="rounded=0;whiteSpace=wrap;html=1;fontSize=20;" vertex="1" parent="1">
          <mxGeometry x="40" y="350" width="120" height="60" as="geometry" />
        </mxCell>
        <mxCell id="G0NdqX8XDF4M0NVHrU59-12" value="智慧&lt;br&gt;&lt;font style=&quot;font-size: 12px;&quot;&gt;判断力&lt;/font&gt;" style="rounded=0;whiteSpace=wrap;html=1;fontSize=20;" vertex="1" parent="1">
          <mxGeometry x="40" y="490" width="120" height="60" as="geometry" />
        </mxCell>
        <mxCell id="G0NdqX8XDF4M0NVHrU59-19" value="" style="shape=curlyBracket;whiteSpace=wrap;html=1;rounded=1;fontSize=17;" vertex="1" parent="1">
          <mxGeometry x="204" y="66" width="20" height="70" as="geometry" />
        </mxCell>
        <mxCell id="G0NdqX8XDF4M0NVHrU59-23" value="&lt;font style=&quot;font-size: 14px;&quot;&gt;特征&lt;/font&gt;" style="text;html=1;strokeColor=none;fillColor=none;align=center;verticalAlign=middle;whiteSpace=wrap;rounded=0;fontSize=17;" vertex="1" parent="1">
          <mxGeometry x="160" y="80" width="50" height="20" as="geometry" />
        </mxCell>
        <mxCell id="G0NdqX8XDF4M0NVHrU59-24" value="&lt;ul style=&quot;&quot;&gt;&lt;li&gt;普遍性&lt;br&gt;&lt;/li&gt;&lt;li&gt;客观性&lt;br&gt;&lt;/li&gt;&lt;li&gt;多样性&lt;br&gt;&lt;/li&gt;&lt;li&gt;感知性&lt;/li&gt;&lt;/ul&gt;" style="text;strokeColor=none;fillColor=none;html=1;whiteSpace=wrap;verticalAlign=middle;overflow=hidden;fontSize=15;strokeWidth=2;" vertex="1" parent="1">
          <mxGeometry x="204" y="48.5" width="100" height="87.5" as="geometry" />
        </mxCell>
        <mxCell id="G0NdqX8XDF4M0NVHrU59-26" value="&lt;font style=&quot;font-size: 15px;&quot;&gt;&lt;b&gt;解释&lt;/b&gt; 分析 处理 &lt;b&gt;赋予含义&lt;/b&gt;&lt;/font&gt;" style="html=1;verticalAlign=bottom;endArrow=block;rounded=0;strokeColor=default;fontSize=13;" edge="1" parent="1" source="G0NdqX8XDF4M0NVHrU59-1" target="G0NdqX8XDF4M0NVHrU59-8">
          <mxGeometry x="0.25" width="80" relative="1" as="geometry">
            <mxPoint x="100" y="133" as="sourcePoint" />
            <mxPoint x="100" y="213" as="targetPoint" />
            <mxPoint as="offset" />
          </mxGeometry>
        </mxCell>
        <mxCell id="G0NdqX8XDF4M0NVHrU59-27" value="&lt;b&gt;归纳&lt;/b&gt; 演绎 分析 &lt;b&gt;寻找有价值部分&lt;/b&gt;" style="html=1;verticalAlign=bottom;endArrow=block;rounded=0;strokeColor=default;fontSize=15;" edge="1" parent="1">
          <mxGeometry x="0.25" width="80" relative="1" as="geometry">
            <mxPoint x="98" y="270" as="sourcePoint" />
            <mxPoint x="98" y="350" as="targetPoint" />
            <mxPoint as="offset" />
          </mxGeometry>
        </mxCell>
        <mxCell id="G0NdqX8XDF4M0NVHrU59-28" value="收集 加工 &lt;b&gt;应用 传播&lt;/b&gt;" style="html=1;verticalAlign=bottom;endArrow=block;rounded=0;strokeColor=default;fontSize=15;" edge="1" parent="1" source="G0NdqX8XDF4M0NVHrU59-10" target="G0NdqX8XDF4M0NVHrU59-12">
          <mxGeometry x="0.25" width="80" relative="1" as="geometry">
            <mxPoint x="100" y="440" as="sourcePoint" />
            <mxPoint x="680" y="320" as="targetPoint" />
            <mxPoint as="offset" />
          </mxGeometry>
        </mxCell>
        <mxCell id="G0NdqX8XDF4M0NVHrU59-33" style="edgeStyle=orthogonalEdgeStyle;rounded=0;orthogonalLoop=1;jettySize=auto;html=1;fontSize=17;strokeColor=default;entryX=0.45;entryY=0.48;entryDx=0;entryDy=0;entryPerimeter=0;" edge="1" parent="1" target="G0NdqX8XDF4M0NVHrU59-34" source="G0NdqX8XDF4M0NVHrU59-8">
          <mxGeometry relative="1" as="geometry">
            <mxPoint x="160" y="242.5" as="sourcePoint" />
          </mxGeometry>
        </mxCell>
        <mxCell id="G0NdqX8XDF4M0NVHrU59-34" value="" style="shape=curlyBracket;whiteSpace=wrap;html=1;rounded=1;fontSize=17;" vertex="1" parent="1">
          <mxGeometry x="207" y="192" width="20" height="100" as="geometry" />
        </mxCell>
        <mxCell id="G0NdqX8XDF4M0NVHrU59-35" value="&lt;font style=&quot;font-size: 14px;&quot;&gt;特征&lt;/font&gt;" style="text;html=1;strokeColor=none;fillColor=none;align=center;verticalAlign=middle;whiteSpace=wrap;rounded=0;fontSize=17;" vertex="1" parent="1">
          <mxGeometry x="160" y="220" width="50" height="18.5" as="geometry" />
        </mxCell>
        <mxCell id="G0NdqX8XDF4M0NVHrU59-36" value="&lt;ul&gt;&lt;li&gt;&lt;font style=&quot;font-size: 14px;&quot;&gt;&lt;span style=&quot;background-color: initial;&quot;&gt;载体依附性&lt;/span&gt;&lt;/font&gt;&lt;/li&gt;&lt;li&gt;&lt;font style=&quot;font-size: 14px;&quot;&gt;&lt;span style=&quot;background-color: initial;&quot;&gt;时效性&lt;/span&gt;&lt;/font&gt;&lt;/li&gt;&lt;li&gt;&lt;font style=&quot;font-size: 14px;&quot;&gt;&lt;span style=&quot;background-color: initial;&quot;&gt;共享性&lt;/span&gt;&lt;/font&gt;&lt;/li&gt;&lt;li&gt;&lt;font style=&quot;font-size: 14px;&quot;&gt;&lt;span style=&quot;background-color: initial;&quot;&gt;可加工处理性&lt;/span&gt;&lt;/font&gt;&lt;/li&gt;&lt;li&gt;&lt;font style=&quot;font-size: 14px;&quot;&gt;&lt;span style=&quot;background-color: initial;&quot;&gt;真伪性&lt;/span&gt;&lt;/font&gt;&lt;/li&gt;&lt;li&gt;&lt;font style=&quot;font-size: 14px;&quot;&gt;&lt;span style=&quot;background-color: initial;&quot;&gt;价值性&lt;/span&gt;&lt;/font&gt;&lt;/li&gt;&lt;/ul&gt;" style="text;strokeColor=none;fillColor=none;html=1;whiteSpace=wrap;verticalAlign=middle;overflow=hidden;fontSize=15;strokeWidth=2;" vertex="1" parent="1">
          <mxGeometry x="205" y="170.5" width="143" height="135" as="geometry" />
        </mxCell>
      </root>
    </mxGraphModel>
  </diagram>
</mxfile>
